<?xml version="1.0" encoding="iso-8859-1"?>
<!-- Generator: Adobe Illustrator 19.0.0, SVG Export Plug-In . SVG Version: 6.00 Build 0)  -->
<svg version="1.1" id="Capa_1" xmlns="http://www.w3.org/2000/svg" xmlns:xlink="http://www.w3.org/1999/xlink" x="0px" y="0px"
	 viewBox="0 0 512 512" style="enable-background:new 0 0 512 512;" xml:space="preserve">
<g>
	<g>
		<path d="M0,0v150.666h150.667V0H0z M120.667,120.666H30V30h90.667V120.666z"/>
	</g>
</g>
<g>
	<g>
		<path d="M0,180.666v150.667h150.667V180.666H0z M120.667,301.333H30v-90.667h90.667V301.333z"/>
	</g>
</g>
<g>
	<g>
		<path d="M180.667,0v150.666h150.666V0H180.667z M301.333,120.666h-90.666V30h90.666V120.666z"/>
	</g>
</g>
<g>
	<g>
		<path d="M180.667,180.666v150.667h150.666V180.666H180.667z M301.333,301.333h-90.666v-90.667h90.666V301.333z"/>
	</g>
</g>
<g>
	<g>
		<path d="M361.333,361.333V512H512V361.333H361.333z M482,482h-90.667v-90.667H482V482z"/>
	</g>
</g>
<g>
	<g>
		<path d="M361.333,0v150.666H512V0H361.333z M482,120.666h-90.667V30H482V120.666z"/>
	</g>
</g>
<g>
	<g>
		<path d="M361.333,180.666v150.667H512V180.666H361.333z M482,301.333h-90.667v-90.667H482V301.333z"/>
	</g>
</g>
<g>
	<g>
		<path d="M0,361.333V512h150.667V361.333H0z M120.667,482H30v-90.667h90.667V482z"/>
	</g>
</g>
<g>
	<g>
		<path d="M180.667,361.333V512h150.666V361.333H180.667z M301.333,482h-90.666v-90.667h90.666V482z"/>
	</g>
</g>
<g>
</g>
<g>
</g>
<g>
</g>
<g>
</g>
<g>
</g>
<g>
</g>
<g>
</g>
<g>
</g>
<g>
</g>
<g>
</g>
<g>
</g>
<g>
</g>
<g>
</g>
<g>
</g>
<g>
</g>
</svg>
